<svg width="9" height="9" viewBox="0 0 9 9" fill="none" xmlns="http://www.w3.org/2000/svg">
<path fill-rule="evenodd" clip-rule="evenodd" d="M7.32926 1.23254C7.17081 1.07409 6.91392 1.07409 6.75547 1.23254L3.39081 4.59719L3.39081 5.17098H3.9646L7.32926 1.80632C7.4877 1.64788 7.4877 1.39098 7.32926 1.23254ZM6.18168 0.658751C6.65702 0.183411 7.4277 0.183411 7.90304 0.658751C8.37838 1.13409 8.37838 1.90477 7.90304 2.38011L4.41955 5.8636C4.34346 5.93969 4.24026 5.98243 4.13266 5.98243H2.98509C2.76101 5.98243 2.57936 5.80078 2.57936 5.57671L2.57936 4.42913C2.57936 4.32153 2.6221 4.21833 2.69819 4.14224L6.18168 0.658751ZM1.7679 1.92516C1.54383 1.92516 1.36218 2.10681 1.36218 2.33089V6.79389C1.36218 7.01797 1.54383 7.19962 1.7679 7.19962H6.23091C6.45498 7.19962 6.63663 7.01797 6.63663 6.79389V4.76525C6.63663 4.54117 6.81828 4.35952 7.04236 4.35952C7.26644 4.35952 7.44809 4.54117 7.44809 4.76525V6.79389C7.44809 7.46612 6.90314 8.01107 6.23091 8.01107H1.7679C1.09567 8.01107 0.55072 7.46612 0.55072 6.79389V2.33089C0.55072 1.65865 1.09567 1.1137 1.7679 1.1137H3.79654C4.02062 1.1137 4.20227 1.29535 4.20227 1.51943C4.20227 1.74351 4.02062 1.92516 3.79654 1.92516H1.7679Z" fill="#004050"/>
</svg>