<svg width="13" height="12" viewBox="0 0 13 12" fill="none" xmlns="http://www.w3.org/2000/svg">
<path d="M11.4815 0.233398H1.74404C1.42122 0.233398 1.11163 0.361637 0.88336 0.589903C0.655094 0.818169 0.526855 1.12776 0.526855 1.45058V9.97086C0.526855 10.2937 0.655094 10.6033 0.88336 10.8315C1.11163 11.0598 1.42122 11.188 1.74404 11.188H11.4815C11.8043 11.188 12.1139 11.0598 12.3422 10.8315C12.5704 10.6033 12.6987 10.2937 12.6987 9.97086V1.45058C12.6987 1.12776 12.5704 0.818169 12.3422 0.589903C12.1139 0.361637 11.8043 0.233398 11.4815 0.233398ZM1.74404 9.97086V1.45058H11.4815V9.97086H1.74404Z" fill="#007E9D"/>
<path d="M9.22971 5.99311C9.17823 5.91171 9.10816 5.8437 9.02528 5.79466C8.94239 5.74562 8.84904 5.71695 8.75292 5.71101C8.65679 5.70506 8.56063 5.72202 8.47233 5.76048C8.38403 5.79895 8.30613 5.85781 8.24501 5.93225L7.30413 7.08066L5.61711 4.18924C5.56385 4.09199 5.48415 4.0118 5.38722 3.95795C5.29029 3.9041 5.18009 3.87879 5.06938 3.88495C4.95968 3.88838 4.85295 3.92142 4.76049 3.98056C4.66803 4.03969 4.59328 4.12274 4.54417 4.22089L2.4141 8.48103C2.36749 8.57405 2.3455 8.67746 2.35023 8.78139C2.35497 8.88532 2.38627 8.98631 2.44115 9.0747C2.49603 9.16309 2.57265 9.23593 2.6637 9.28628C2.75475 9.33662 2.85718 9.36279 2.96122 9.36227H10.2643C10.3733 9.36225 10.4803 9.33295 10.5741 9.27745C10.6679 9.22195 10.7451 9.14228 10.7976 9.04676C10.85 8.95124 10.8759 8.84337 10.8725 8.73444C10.869 8.6255 10.8364 8.51949 10.778 8.42747L9.22971 5.99311Z" fill="#007E9D"/>
<path d="M8.13425 4.49354C8.63842 4.49354 9.04714 4.08482 9.04714 3.58065C9.04714 3.07648 8.63842 2.66776 8.13425 2.66776C7.63007 2.66776 7.22136 3.07648 7.22136 3.58065C7.22136 4.08482 7.63007 4.49354 8.13425 4.49354Z" fill="#007E9D"/>
</svg>
