<svg width="8" height="5" viewBox="0 0 8 5" fill="none" xmlns="http://www.w3.org/2000/svg">
<path d="M0.430162 1.4727C0.430192 1.33925 0.471799 1.2088 0.549724 1.09784C0.627649 0.986892 0.738392 0.900416 0.867954 0.84935C0.997516 0.798283 1.14008 0.78492 1.27762 0.810947C1.41516 0.836975 1.54151 0.901225 1.64068 0.995576L3.97592 3.21787L6.31116 0.995576C6.37658 0.931121 6.45483 0.879709 6.54135 0.84434C6.62787 0.808972 6.72092 0.790355 6.81508 0.789576C6.90924 0.788798 7.00262 0.805873 7.08978 0.839805C7.17693 0.873738 7.25611 0.923848 7.32269 0.987212C7.38927 1.05058 7.44193 1.12592 7.47759 1.20886C7.51324 1.2918 7.53119 1.38066 7.53037 1.47027C7.52955 1.55988 7.50999 1.64843 7.47282 1.73077C7.43566 1.8131 7.38163 1.88757 7.3139 1.94982L4.47729 4.64924C4.34431 4.77575 4.16396 4.84683 3.97592 4.84683C3.78788 4.84683 3.60754 4.77575 3.47455 4.64924L0.637943 1.94982C0.504942 1.82329 0.430202 1.65167 0.430162 1.4727Z" fill="#6B7280"/>
</svg>
