<svg width="12" height="12" viewBox="0 0 12 12" fill="none" xmlns="http://www.w3.org/2000/svg">
<path d="M10.0232 1.32886H8.92772V0.781131C8.92772 0.635863 8.87001 0.496545 8.76729 0.393825C8.66457 0.291106 8.52525 0.233398 8.37999 0.233398C8.23472 0.233398 8.0954 0.291106 7.99268 0.393825C7.88996 0.496545 7.83225 0.635863 7.83225 0.781131V1.32886H6.18906V0.781131C6.18906 0.635863 6.13135 0.496545 6.02863 0.393825C5.92591 0.291106 5.78659 0.233398 5.64132 0.233398C5.49606 0.233398 5.35674 0.291106 5.25402 0.393825C5.1513 0.496545 5.09359 0.635863 5.09359 0.781131V1.32886H3.4504V0.781131C3.4504 0.635863 3.39269 0.496545 3.28997 0.393825C3.18725 0.291106 3.04793 0.233398 2.90266 0.233398C2.7574 0.233398 2.61808 0.291106 2.51536 0.393825C2.41264 0.496545 2.35493 0.635863 2.35493 0.781131V1.32886H1.25947C0.968931 1.32886 0.690295 1.44428 0.484856 1.64972C0.279416 1.85516 0.164001 2.13379 0.164001 2.42433V10.0926C0.164001 10.3831 0.279416 10.6618 0.484856 10.8672C0.690295 11.0726 0.968931 11.188 1.25947 11.188H10.0232C10.3137 11.188 10.5924 11.0726 10.7978 10.8672C11.0032 10.6618 11.1186 10.3831 11.1186 10.0926V2.42433C11.1186 2.13379 11.0032 1.85516 10.7978 1.64972C10.5924 1.44428 10.3137 1.32886 10.0232 1.32886ZM2.35493 2.42433C2.35493 2.5696 2.41264 2.70891 2.51536 2.81163C2.61808 2.91435 2.7574 2.97206 2.90266 2.97206C3.04793 2.97206 3.18725 2.91435 3.28997 2.81163C3.39269 2.70891 3.4504 2.5696 3.4504 2.42433H5.09359C5.09359 2.5696 5.1513 2.70891 5.25402 2.81163C5.35674 2.91435 5.49606 2.97206 5.64132 2.97206C5.78659 2.97206 5.92591 2.91435 6.02863 2.81163C6.13135 2.70891 6.18906 2.5696 6.18906 2.42433H7.83225C7.83225 2.5696 7.88996 2.70891 7.99268 2.81163C8.0954 2.91435 8.23472 2.97206 8.37999 2.97206C8.52525 2.97206 8.66457 2.91435 8.76729 2.81163C8.87001 2.70891 8.92772 2.5696 8.92772 2.42433H10.0232V3.51979H1.25947V2.42433H2.35493ZM1.25947 10.0926V4.61526H10.0232V10.0926H1.25947Z" fill="#0396A6"/>
<path d="M8.37999 5.71072H2.90266C2.7574 5.71072 2.61808 5.76843 2.51536 5.87115C2.41264 5.97387 2.35493 6.11319 2.35493 6.25845C2.35493 6.40372 2.41264 6.54304 2.51536 6.64576C2.61808 6.74848 2.7574 6.80619 2.90266 6.80619H8.37999C8.52525 6.80619 8.66457 6.74848 8.76729 6.64576C8.87001 6.54304 8.92772 6.40372 8.92772 6.25845C8.92772 6.11319 8.87001 5.97387 8.76729 5.87115C8.66457 5.76843 8.52525 5.71072 8.37999 5.71072Z" fill="#0396A6"/>
</svg>
