<svg width="14" height="15" viewBox="0 0 14 15" fill="none" xmlns="http://www.w3.org/2000/svg">
<path d="M12.3184 0.806484C12.3566 0.70789 12.3375 0.609297 12.2801 0.530422C12.2227 0.451547 12.1462 0.412109 12.0506 0.412109C5.93041 0.412109 3.00419 2.95582 2.02879 4.04035C1.11076 5.06573 0.632622 6.20941 0.709124 7.17563C0.881254 9.40384 2.44955 10.1926 3.61621 10.587C3.71184 10.6264 3.76922 10.6658 3.78834 10.725C3.80747 10.7644 3.80747 10.8236 3.76922 10.863C3.13807 12.0264 2.94682 13.4067 2.92769 13.4659C2.90857 13.6237 3.02332 13.7814 3.17633 13.8011C3.19545 13.8011 3.19545 13.8011 3.21458 13.8011C3.34846 13.8011 3.48233 13.7025 3.50146 13.5448C3.50146 13.5251 3.67359 12.2236 4.26648 11.1588C4.38124 10.9616 4.40036 10.725 4.32386 10.5081C4.24736 10.2912 4.0561 10.1137 3.80747 10.0348C2.64081 9.64047 1.41677 8.97003 1.26377 7.13619C1.20639 6.32772 1.62715 5.36151 2.43043 4.43473C3.34846 3.42907 6.02604 1.12198 11.649 1.00367C11.0943 2.89667 11.5151 4.45445 11.8976 5.85448C12.108 6.62351 12.2992 7.3531 12.2992 8.04325C12.2992 10.3109 10.3867 12.2236 8.14898 12.2236C7.2692 12.2236 6.4468 11.8095 5.89216 11.0997C5.33752 10.4095 5.12714 9.54188 5.29927 8.67425C5.81566 6.07138 7.95772 4.04035 9.6599 2.79807C9.79378 2.69948 9.8129 2.52201 9.7364 2.38398C9.64077 2.24595 9.46864 2.22623 9.33477 2.30511C7.53696 3.60654 5.29927 5.75588 4.74462 8.53622C4.53424 9.58131 4.802 10.6461 5.45227 11.4546C6.12167 12.3025 7.1162 12.7955 8.14898 12.7955C10.7118 12.7955 12.873 10.6067 12.873 8.02353C12.873 7.2545 12.6626 6.48547 12.4522 5.67701C12.0506 4.21782 11.649 2.69948 12.3184 0.806484Z" fill="#F3F4F8" stroke="#F3F4F8" stroke-width="0.608591"/>
</svg>
