<svg width="#current" height="#current" viewBox="0 0 12 11" fill="#current" xmlns="http://www.w3.org/2000/svg">
<path d="M10.5378 1.13795H9.44231V0.590213C9.44231 0.444945 9.3846 0.305627 9.28188 0.202908C9.17916 0.100188 9.03984 0.0424805 8.89457 0.0424805C8.74931 0.0424805 8.60999 0.100188 8.50727 0.202908C8.40455 0.305627 8.34684 0.444945 8.34684 0.590213V1.13795H6.70364V0.590213C6.70364 0.444945 6.64594 0.305627 6.54322 0.202908C6.4405 0.100188 6.30118 0.0424805 6.15591 0.0424805C6.01064 0.0424805 5.87133 0.100188 5.76861 0.202908C5.66589 0.305627 5.60818 0.444945 5.60818 0.590213V1.13795H3.96498V0.590213C3.96498 0.444945 3.90728 0.305627 3.80456 0.202908C3.70184 0.100188 3.56252 0.0424805 3.41725 0.0424805C3.27198 0.0424805 3.13266 0.100188 3.02995 0.202908C2.92723 0.305627 2.86952 0.444945 2.86952 0.590213V1.13795H1.77405C1.48352 1.13795 1.20488 1.25336 0.999443 1.4588C0.794004 1.66424 0.678589 1.94287 0.678589 2.23341V9.90166C0.678589 10.1922 0.794004 10.4708 0.999443 10.6763C1.20488 10.8817 1.48352 10.9971 1.77405 10.9971H10.5378C10.8283 10.9971 11.1069 10.8817 11.3124 10.6763C11.5178 10.4708 11.6332 10.1922 11.6332 9.90166V2.23341C11.6332 1.94287 11.5178 1.66424 11.3124 1.4588C11.1069 1.25336 10.8283 1.13795 10.5378 1.13795ZM2.86952 2.23341C2.86952 2.37868 2.92723 2.518 3.02995 2.62071C3.13266 2.72343 3.27198 2.78114 3.41725 2.78114C3.56252 2.78114 3.70184 2.72343 3.80456 2.62071C3.90728 2.518 3.96498 2.37868 3.96498 2.23341H5.60818C5.60818 2.37868 5.66589 2.518 5.76861 2.62071C5.87133 2.72343 6.01064 2.78114 6.15591 2.78114C6.30118 2.78114 6.4405 2.72343 6.54322 2.62071C6.64594 2.518 6.70364 2.37868 6.70364 2.23341H8.34684C8.34684 2.37868 8.40455 2.518 8.50727 2.62071C8.60999 2.72343 8.74931 2.78114 8.89457 2.78114C9.03984 2.78114 9.17916 2.72343 9.28188 2.62071C9.3846 2.518 9.44231 2.37868 9.44231 2.23341H10.5378V3.32887H1.77405V2.23341H2.86952ZM1.77405 9.90166V4.42434H10.5378V9.90166H1.77405Z" fill="#current"/>
<path d="M3.69112 5.5198H3.14338C2.99213 5.5198 2.86952 5.64242 2.86952 5.79367V6.3414C2.86952 6.49265 2.99213 6.61527 3.14338 6.61527H3.69112C3.84237 6.61527 3.96498 6.49265 3.96498 6.3414V5.79367C3.96498 5.64242 3.84237 5.5198 3.69112 5.5198Z" fill="#current"/>
<path d="M3.69112 7.71073H3.14338C2.99213 7.71073 2.86952 7.83335 2.86952 7.9846V8.53233C2.86952 8.68358 2.99213 8.8062 3.14338 8.8062H3.69112C3.84237 8.8062 3.96498 8.68358 3.96498 8.53233V7.9846C3.96498 7.83335 3.84237 7.71073 3.69112 7.71073Z" fill="#current"/>
<path d="M6.42978 5.5198H5.88205C5.73079 5.5198 5.60818 5.64242 5.60818 5.79367V6.3414C5.60818 6.49265 5.73079 6.61527 5.88205 6.61527H6.42978C6.58103 6.61527 6.70364 6.49265 6.70364 6.3414V5.79367C6.70364 5.64242 6.58103 5.5198 6.42978 5.5198Z" fill="#current"/>
<path d="M6.42978 7.71073H5.88205C5.73079 7.71073 5.60818 7.83335 5.60818 7.9846V8.53233C5.60818 8.68358 5.73079 8.8062 5.88205 8.8062H6.42978C6.58103 8.8062 6.70364 8.68358 6.70364 8.53233V7.9846C6.70364 7.83335 6.58103 7.71073 6.42978 7.71073Z" fill="#current"/>
<path d="M9.16844 5.5198H8.62071C8.46946 5.5198 8.34684 5.64242 8.34684 5.79367V6.3414C8.34684 6.49265 8.46946 6.61527 8.62071 6.61527H9.16844C9.31969 6.61527 9.44231 6.49265 9.44231 6.3414V5.79367C9.44231 5.64242 9.31969 5.5198 9.16844 5.5198Z" fill="#current"/>
<path d="M9.16844 7.71073H8.62071C8.46946 7.71073 8.34684 7.83335 8.34684 7.9846V8.53233C8.34684 8.68358 8.46946 8.8062 8.62071 8.8062H9.16844C9.31969 8.8062 9.44231 8.68358 9.44231 8.53233V7.9846C9.44231 7.83335 9.31969 7.71073 9.16844 7.71073Z" fill="#current"/>
</svg>
